<?xml version="1.0" encoding="utf-8"?>
<!-- Generator: Adobe Illustrator 25.2.0, SVG Export Plug-In . SVG Version: 6.00 Build 0)  -->
<svg version="1.1" id="Layer_1" xmlns="http://www.w3.org/2000/svg" xmlns:xlink="http://www.w3.org/1999/xlink" x="0px" y="0px"
	 viewBox="0 0 187.6 184.7" style="enable-background:new 0 0 187.6 184.7;" xml:space="preserve">
<style type="text/css">
	.st0{fill:#E7EFC2;stroke:#A6BF82;stroke-width:3;stroke-miterlimit:10;}
	.st1{fill:#B2D659;}
	.st2{fill:#BEDC70;}
	.st3{fill:#B7D963;}
	.st4{fill:#B7D965;}
	.st5{fill:#E8F4C7;}
	.st6{fill:#EBF7CF;}
	.st7{fill:#B9DA68;}
	.st8{fill:#BEDC71;}
	.st9{fill:#CAE38A;}
	.st10{fill:#BDDC6F;}
	.st11{fill:#B8D965;}
	.st12{fill:#E9F5CB;}
	.st13{fill:#DEEFB3;}
	.st14{fill:#DDEEB1;}
	.st15{fill:#CAE38B;}
	.st16{fill:#D4E99F;}
	.st17{fill:#BFDD74;}
	.st18{fill:#BDDC6E;}
	.st19{fill:#C9E388;}
	.st20{fill:#D9ECA9;}
	.st21{fill:#C7E183;}
	.st22{fill:#D7EAA4;}
	.st23{fill:#CEE591;}
	.st24{fill:#D5EAA0;}
	.st25{fill:#DAECAB;}
	.st26{fill:#CBE48B;}
	.st27{fill:#B9DA67;}
	.st28{fill:#CBE48D;}
	.st29{fill:#E6F4C4;}
	.st30{fill:#CFE796;}
	.st31{fill:#BFDE74;}
	.st32{fill:#D6EBA5;}
	.st33{fill:#BBDB6C;}
	.st34{fill:#BCDC6D;}
	.st35{fill:#C2DF79;}
	.st36{fill:#CEE592;}
	.st37{fill:#CCE590;}
	.st38{fill:#E5F3C2;}
	.st39{fill:#BFDE75;}
	.st40{fill:#DBEDAC;}
	.st41{fill:#BADA6A;}
	.st42{fill:#C4E07F;}
	.st43{fill:#DCEEB0;}
	.st44{fill:#E8F5C9;}
	.st45{fill:#D2E89B;}
	.st46{fill:#CEE692;}
	.st47{fill:#CBE48C;}
	.st48{fill:#CEE693;}
	.st49{fill:#CDE591;}
	.st50{fill:#C6E182;}
	.st51{fill:#D8ECA8;}
	.st52{fill:#C3E07D;}
	.st53{fill:#D7EBA4;}
	.st54{fill:#BEDD71;}
	.st55{fill:#CFE696;}
	.st56{fill:#CFE797;}
	.st57{fill:#E6F4C6;}
	.st58{fill:#CDE590;}
	.st59{fill:#CFE693;}
	.st60{fill:#DCEEAF;}
	.st61{fill:#E0F0B8;}
	.st62{fill:#D8EBA5;}
	.st63{fill:#E0F0B6;}
	.st64{fill:#D5EAA1;}
	.st65{fill:#DDEEB0;}
	.st66{fill:#EBF6CE;}
	.st67{fill:#B1D65A;}
	.st68{fill:#B4D75E;}
	.st69{fill:#B8D966;}
	.st70{fill:#C2DF7A;}
	.st71{fill:#DDEEB2;}
	.st72{fill:#CCE58D;}
	.st73{fill:#C0DE73;}
	.st74{fill:#BEDD73;}
	.st75{fill:#DAEDAB;}
	.st76{fill:#ECF8D3;}
	.st77{fill:#D1E89C;}
	.st78{fill:#D4E99C;}
</style>
<polygon class="st0" points="93.8,1.6 154,23.5 186,79 174.9,142.1 125.8,183.2 61.8,183.2 12.7,142.1 1.6,79 33.6,23.5 "/>
<g id="Bg">
</g>
<g id="Folha">
	<path class="st1" d="M155,84.1c-2,2.7-4,5.4-6.1,8.1c-4.5,5.9-9.2,11.9-14.8,16.8c-4,3.5-7.9,7.4-12.8,9.9
		c-3.5,1.8-6.5,4.5-10.2,6.1c-5.2,2.3-10.8,3.4-16.5,4c-2.6,0.3-5.3-0.3-7.9-0.7c-6.3-1-12.7-1.2-19-2c-2.4-0.3-4.8,0.4-7.2,0.3
		c-3.9-0.2-5.2-1.7-4.3-5.4c2-7.5,5.7-14.1,10.5-20C70.9,96,74.3,90.3,78,84.9c2.9-4.3,6.6-7.9,11.3-10.5c4.1-2.2,8.1-4.7,12.5-6.4
		c7.6-3.1,15.5-4.1,23.6-4.4c12.4-0.4,24.8-0.6,37.2-2c4.9-0.5,5.9,1.2,3.9,5.9c-2.4,5.7-6.2,10.3-10.4,14.6
		C155.1,82.4,155.4,83.5,155,84.1z"/>
	<path class="st2" d="M155,84.1c-0.1-0.7-1.2-1-0.7-1.8c0.5-0.7,1.3-0.2,1.9-0.2C156,82.9,155.8,83.7,155,84.1z"/>
	<path class="st3" d="M78.1,108.3c0.8,0.6,1.7,1.4,0.4,2.1c-1.3,0.6-1.9,2.1-3.3,2.5c-3.2,0.7-5.9,2.3-7.7,5.2
		c-0.9,0.8-1.8,1.7-2.6,2.5c-0.2-0.4-0.4-1-1.1-0.4c-0.5,0.5-1.2,0.5-1.8-0.1c-0.1-0.7-0.7-1.4-0.3-2.1c0.7-1.1,1.1,0.4,1.6,0.3
		c0.4-0.1,1.2-0.5,1.2-0.7c-0.1-1.6,2-1.7,2.1-3.4c-0.9-0.1-1.4,1.3-2.6,0.8c0.9-3.9,2.9-7.3,5.3-10.5c0.1,0.1,0.3,0.1,0.4,0.2
		c0.2,0.2,0.4,0.5,0.5,0.8c0,0.3,0,0.6-0.1,0.9c-0.2,0.7-1.2,1-0.7,1.9c-0.4,1.7-3,2.6-1.6,4.8c0.8,0.7,1.2,0.1,1.6-0.5
		c2.1-2.4,5-3.9,7.5-5.8c0.8-0.6,1.9-0.9,2.7-1.7c0.4-0.5,1-0.9,1.5-0.5c0.8,0.6-0.3,1.2-0.2,1.9c-0.1,0.5-0.5,0.7-0.9,0.7
		C78.8,106.9,78.3,107.4,78.1,108.3L78.1,108.3z"/>
	<path class="st4" d="M142.3,68.4c-0.4,0.5-1.1,0.8-1.6,0.5c-1.9-1.2-4.2,0.3-6.2-0.8c-1.3-0.7-1.6,1-2.4,1.5
		c-0.6-2.1,0.1-2.9,2.4-3c2-0.1,4.1-0.6,6.1,0.1C140.8,67.6,141.9,67.6,142.3,68.4z"/>
	<path class="st5" d="M119.3,82c0.3-0.2,0.5-0.4,0.8-0.6c2.1-1.3,4.1-2.8,6.5-3.3c1,0,1.7-0.3,2.4-1c1-0.5,1.4-0.3,1.2,0.9
		c-3,1.5-5.9,3-8.9,4.5c-1.1,0.5-2.2,0.9-3.3,1.4c-0.7,0.2-0.8-0.2-0.8-0.8C117.6,82.3,118.6,82.2,119.3,82z"/>
	<path class="st6" d="M106.4,71.4c-3.2,1.4-6.4,2.9-9.6,4.3c-0.7,0-0.9-0.4-0.6-1c2.7-1.9,5.8-3.1,8.9-4.3
		C106,70.1,106.7,70.1,106.4,71.4z"/>
	<path class="st7" d="M119.3,82c-0.6,0.4-1.2,0.7-1.8,1.1c-0.4,0.4-0.8,1-1.6,0.4c-0.4-0.9-1-0.6-1.8-0.5c-1.8,0.3-3.2,1.6-5,1.5
		l0,0c1.9-2.2,4.8-2.4,7.2-3.7C117.8,79.9,118.2,81.9,119.3,82z"/>
	<path class="st8" d="M81.9,100.1c3.4-2.9,7.1-5.4,11-7.5c0.2,0.3,0.6,0.4,0.6,0.9c-3.3,1.4-5.8,4.1-9,5.8
		C83.7,99.7,82.9,100.3,81.9,100.1L81.9,100.1z"/>
	<path class="st9" d="M93.5,93.4c-0.2-0.3-0.4-0.6-0.6-0.9c2.8-1.6,5.5-3.2,8.3-4.8c0.7-0.4,1.4-0.9,2.3-0.7l0,0
		C100.6,90,96.9,91.4,93.5,93.4z"/>
	<path class="st10" d="M107.5,95c-2,3-5.4,3.9-8.3,5.3C101.4,97.8,104.6,96.6,107.5,95z"/>
	<path class="st11" d="M99.5,116.6c1-1.4,2.7-1.4,4-2.3c1.6-1.1,2.6-0.3,3.3,1.7c-2.6-0.8-4.7,0.5-6.8,1.4
		C99.7,117.3,99.5,117,99.5,116.6z"/>
	<path class="st12" d="M149,76.3c-2.3,1.1-4.2,3-7.5,4c1.8-3,4.4-3.9,6.8-5C149.2,75.3,149.3,75.7,149,76.3z"/>
	<path class="st13" d="M134,89.9c-2.6,2-5.2,4-7.8,6c-0.4,0.2-0.7,0.1-0.9-0.3c2.5-2.8,5.5-4.9,8.8-6.6c0.2,0.2,0.2,0.4,0.1,0.6
		C134.2,89.8,134.1,89.9,134,89.9z"/>
	<path class="st4" d="M75.6,98.2c-0.1,0.6,1.3,1,0.2,1.6c-1.6,0.8-2.4,2.2-2.7,3.8c-1.4,0.6-2.2,0.1-2.7-1.3c0-0.1,0-0.3,0.1-0.3
		c2.2-1.2,2.4-1.3,3.5-3.4C74.5,98.3,74.8,97.5,75.6,98.2z"/>
	<path class="st14" d="M89.2,120.7c2.3-1,4.6-2,7-2.6c0.7,0,0.9,0.4,0.6,1c-2.3,1-4.6,1.9-7.1,2.5C89,121.6,88.9,121.3,89.2,120.7z"
		/>
	<path class="st15" d="M118.9,107.6c1.7-2.2,4-3.8,6.2-5.4c0.3-0.3,0.5-0.2,0.7,0.1c-2.2,2.2-4,4.8-6.9,6.2
		C118.4,108.2,118.4,107.9,118.9,107.6z"/>
	<path class="st16" d="M67.4,118c-0.4-0.3-0.6-0.9-0.2-1.2c2.1-1.7,4.2-3.4,6.8-4.4c0.5-0.2,0.9-0.1,1.2,0.4
		C72.4,114.3,69.8,116,67.4,118z"/>
	<path class="st9" d="M89.5,98.5c1.9-0.7,3.3-2.1,5-3.2c1-0.6,1.8-1.5,3.2-1.2l0,0c-2.3,2.2-4.9,3.8-7.6,5.3
		C89.4,99.5,89.2,99.2,89.5,98.5z"/>
	<path class="st17" d="M75.6,98.2c-0.5,0.1-1,0.3-1.6,0.4c1.2-2.4,2.6-4.5,5.1-5.9C78.4,94.8,76.8,96.4,75.6,98.2z"/>
	<path class="st18" d="M132.9,103.6c-1.7,2.1-3.8,3.9-6.6,4.7c1.7-1.7,3.5-3.3,5.2-5C132,103.1,132.5,103.1,132.9,103.6z"/>
	<path class="st10" d="M126.6,78.1c-1.9,1.6-4.2,2.5-6.5,3.3c0-0.3,0.1-0.6,0.1-0.8l0,0c1-0.2,1.5-1,2.2-1.6
		C123.7,78,125,77.5,126.6,78.1z"/>
	<path class="st19" d="M152.1,79.9c-1.5,2-3.1,3.8-6.3,4.3c2-1.8,3.3-3.6,5.4-4.6C151.6,79.5,151.9,79.5,152.1,79.9z"/>
	<path class="st20" d="M118.9,107.6c0,0.3,0,0.6-0.1,0.9c-2.1,1.7-4.3,3.5-6.9,4.6c-0.3-0.6-0.2-1.1,0.3-1.4
		C114.7,110.7,116.4,108.5,118.9,107.6z"/>
	<path class="st21" d="M148.6,66.6c2-1.1,4.1-0.5,6.2-0.6c-1.7,1.3-3.8,1-5.7,1.4C148.9,67.2,148.7,67,148.6,66.6z"/>
	<path class="st22" d="M148.6,66.6c0.2,0.3,0.4,0.5,0.5,0.8c-2,0.3-4,0.5-6,0.4c-0.4-0.2-0.6-0.4-0.6-0.8
		C144.6,66.5,146.6,66.6,148.6,66.6z"/>
	<path class="st23" d="M130.3,78c-0.2-0.6-0.7-0.8-1.2-0.9c1.4-1.3,3.2-1.2,5.2-1.8C133.4,77.4,131.5,77.2,130.3,78z"/>
	<path class="st9" d="M96.2,74.7c0.2,0.3,0.4,0.7,0.6,1c-1.2,0.9-2.5,1.6-4.6,2.4C93.2,75.8,94.5,75,96.2,74.7z"/>
	<path class="st24" d="M105.5,107.4c2.2-1.2,4.1-2.9,6.6-3.2c0.2,0.2,0.2,0.4,0.1,0.6c-0.1,0.2-0.2,0.2-0.3,0.2
		c-1.9,0.7-3.5,2.4-5.6,2.7C106,107.9,105.7,107.8,105.5,107.4z"/>
	<path class="st25" d="M106.4,71.4c-0.2-0.7-0.7-0.8-1.3-0.9c1.6-1.1,3.7-0.6,5.4-1.3c0.3-0.1,0.6-0.1,0.9,0.2
		c0.1,0.3,0,0.6-0.3,0.7C109.5,70.4,107.9,70.9,106.4,71.4z"/>
	<path class="st26" d="M125.4,95.6c0.3,0.1,0.6,0.2,0.9,0.3c-1.6,1.3-3.2,2.6-5.1,3.4c-0.3,0.3-0.6,0.2-0.7-0.2
		C121.8,97.6,123.6,96.5,125.4,95.6z"/>
	<path class="st27" d="M133.2,85.2c-0.9,0.9-2,1.3-3.1,1.5C130.4,84.3,130.4,84.3,133.2,85.2z"/>
	<path class="st28" d="M94.3,112.8c-1.6,0.7-3.1,1.6-5.5,1.9c1.5-1.9,3.4-2,4.8-2.9C94.1,112,94.3,112.3,94.3,112.8z"/>
	<path class="st29" d="M94.3,112.8c-0.2-0.3-0.4-0.7-0.7-1c1.2-0.7,2.4-1.5,3.9-1.6c0.8,0,0.9,0.3,0.7,1
		C96.9,111.7,95.6,112.3,94.3,112.8z"/>
	<path class="st21" d="M112,104.9c0-0.3,0.1-0.5,0.1-0.8c1.5-1.4,3.2-2.6,5-3.5c0.2,0.2,0.3,0.4,0.2,0.6c-0.1,0.2-0.2,0.2-0.3,0.2
		C115.6,103,113.9,104.1,112,104.9z"/>
	<path class="st30" d="M116,83.5c0.5-0.1,1-0.3,1.6-0.4c0.2,0.3,0.4,0.6,0.6,0.9c-1.6,0.7-2.9,2.1-4.8,2.1c-0.8,0.1-0.9-0.3-0.6-0.9
		C113.9,84.7,115.2,84.6,116,83.5z"/>
	<path class="st31" d="M85.1,86.7c1.9-0.8,3.3-2.7,5.6-2.7l0,0c-1.4,1.5-3.2,2.6-5,3.5C85.3,87.4,85.3,87,85.1,86.7z"/>
	<path class="st32" d="M105.5,107.4c0.3,0.1,0.6,0.1,0.8,0.2c-1.2,1.8-3.1,1.6-4.9,2c-0.2-0.2-0.3-0.4-0.2-0.5
		c0.1-0.2,0.2-0.2,0.3-0.2c0.6-0.8,1.3-1.2,2.3-1c0.3-0.1,0.6-0.3,0.9-0.5C105.1,107.3,105.3,107.3,105.5,107.4z"/>
	<path class="st33" d="M88.6,99.8c-1.2,1.4-2.9,2.2-4.6,3C85.1,101.2,86.3,99.8,88.6,99.8L88.6,99.8z"/>
	<path class="st34" d="M132.3,102.7c1.2-1.3,2-3.1,4.2-2.9l0,0c-0.9,1.3-1.9,2.7-3.6,3C132.7,103.2,132.4,103.1,132.3,102.7z"/>
	<path class="st4" d="M129.5,69.8c-0.8-0.5-1.5-1.1-2.4-1.6c3.2-0.9,3.2-0.9,3.2,1.1C130.1,69.4,129.8,69.6,129.5,69.8z"/>
	<path class="st35" d="M112.7,85.1c0.2,0.3,0.4,0.6,0.6,0.9c-1.6,0.6-2.9,2.2-4.8,2l0,0C109.6,86.7,111.1,85.8,112.7,85.1z"/>
	<path class="st36" d="M134.9,88.4c0.6-1.7,2-2.3,3.6-2.7c-0.8,1.3-1.7,2.6-3.4,2.8L134.9,88.4z"/>
	<path class="st37" d="M70.4,102.4c0.8,0.6,1.7,1.2,2.7,1.3c-0.8,0.9-1.7,1.7-2.5,2.6c-0.1-0.1-0.2-0.2-0.4-0.2c0-0.4,0-0.9-0.1-1.3
		c0-0.5-0.4-1.1,0.2-1.6C70.3,102.8,70.3,102.6,70.4,102.4z"/>
	<path class="st38" d="M62,120.1c1.2,0.1,1.8-0.9,2.8-1.3c0.4,0.6,0.1,1.2,0,1.7c-0.7,0.2-1.2,0.6-1.7,1.1c-0.6,0.4-1.2,0.3-1.5-0.4
		C61.3,120.8,61.6,120.3,62,120.1L62,120.1z"/>
	<path class="st39" d="M113.6,68.3c1.3-0.8,2.7-0.3,4.7-0.6c-1.6,1.6-3.1,0.8-4.1,1.5C114,68.9,113.5,68.7,113.6,68.3z"/>
	<path class="st24" d="M117.1,101.4c0-0.3,0.1-0.5,0.1-0.8c0.8-1.1,2.1-1.1,3.2-1.6c0.2,0.1,0.5,0.1,0.7,0.2
		C120.2,100.8,118.6,101,117.1,101.4z"/>
	<path class="st40" d="M101.6,108.8c0,0.3-0.1,0.5-0.1,0.8c-1.2,0.4-2,1.5-3.3,1.6c-0.2-0.3-0.5-0.7-0.7-1
		C98.7,109.3,100.1,108.9,101.6,108.8z"/>
	<path class="st10" d="M108.5,88c-0.8,1.1-2,1.7-3.4,2.5C106.2,88.4,106.2,88.5,108.5,88L108.5,88z"/>
	<path class="st11" d="M110.3,114.3c-0.6,0.5-1.2,1.6-2,0.5c-0.2-0.2-0.4-2.4,1.5-2.1c0.2,0.4,0.5,0.7,0.5,1.2
		C110.3,114,110.3,114.1,110.3,114.3z"/>
	<path class="st41" d="M125.7,102.3l-0.3-0.1l-0.3-0.1c1.1-0.8,1.6-2.5,3.4-2.3l0,0C128.1,101.3,127,101.9,125.7,102.3z"/>
	<path class="st42" d="M96.8,119.1c-0.2-0.3-0.4-0.7-0.6-1c1.1-0.5,2.2-1,3.3-1.5c0.2,0.3,0.4,0.6,0.6,0.8
		C99,118,97.9,118.6,96.8,119.1z"/>
	<path class="st17" d="M83.9,89.4c-0.8,0.9-1.7,1.7-3.3,2.1c0.7-1.4,1.7-2.2,2.7-3C83.7,88.6,83.7,89,83.9,89.4z"/>
	<path class="st43" d="M149,76.3c-0.2-0.3-0.4-0.6-0.7-1c1.1-0.5,2.3-1,3.4-1.5C151.3,75.4,150.2,76,149,76.3z"/>
	<path class="st44" d="M142.6,67c0.2,0.3,0.4,0.6,0.6,0.8l0.1,0.2c-0.3,0.1-0.6,0.3-0.9,0.5v-0.1c-0.5-0.6-2.9,0.7-1.7-1.7
		C141.2,66.8,141.9,66.9,142.6,67z"/>
	<path class="st45" d="M71.7,118.8c1.2-0.5,2.5-1.8,3.7,0c-0.3,0.2-0.5,0.2-0.7-0.1c-0.6,0.4-1.2,0.7-1.7,1.1
		C72.6,119.4,71.9,119.5,71.7,118.8z"/>
	<path class="st46" d="M79.8,107.1c0.3-0.2,0.6-0.4,0.9-0.7c0.6,0.7,1.5,1,1.9,1.9c-0.3,0.2-0.6,0.4-0.8,0.6
		C81,108.4,80.2,108,79.8,107.1z"/>
	<path class="st11" d="M112.2,111.6c-0.1,0.5-0.2,1-0.3,1.4c-0.4,0.6-1,1-1.6,1.2l-0.1-0.1c-0.3-0.5-0.3-1,0.3-1.4
		C110.7,111.9,111.3,111.5,112.2,111.6z"/>
	<path class="st34" d="M136.5,99.9c0.2-1.1,0.9-1.9,2.4-2.8C138.2,98.7,138.3,100.1,136.5,99.9L136.5,99.9z"/>
	<path class="st8" d="M128.4,99.8c0.2-0.4,0.4-0.9,0.7-1.2c0.3-0.4,0.9-0.6,1.2-0.3c0.6,0.6,0,1.1-0.5,1.3
		C129.4,99.9,128.9,99.8,128.4,99.8L128.4,99.8z"/>
	<path class="st7" d="M103.6,86.4c1.3-0.5,2.6-1,4-1.5l0,0c-0.3,1.4-1.2,1.9-2.5,1.7C104.5,87,104,86.9,103.6,86.4z"/>
	<path class="st31" d="M94.1,81.7c-0.9,1.1-2,1.9-3.4,2.3l0,0C91.3,82.3,92.4,81.5,94.1,81.7L94.1,81.7z"/>
	<path class="st5" d="M71.7,118.8c0.5,0.2,1.1,0.3,1.3,0.9c-0.5,0.2-0.9,0.4-1.4,0.7c-0.7,0.1-1.7,0.4-1.3-1
		C70.7,119.2,71.2,119,71.7,118.8z"/>
	<path class="st47" d="M89.2,120.7c0.2,0.3,0.4,0.6,0.6,0.9c-0.6,0.5-1.4,1.5-1.9,0.5C87.2,121.1,88.4,120.9,89.2,120.7z"/>
	<path class="st31" d="M95,81.1c0.1-0.5,0.2-1,0.4-1.3c0.3-0.6,1-0.8,1.4-0.3c0.4,0.4-0.2,0.8-0.6,1.1C95.9,80.8,95.4,80.9,95,81.1
		L95,81.1z"/>
	<path class="st48" d="M113.6,68.3c0.2,0.3,0.4,0.6,0.6,0.9c-1,0.3-2.1,0.6-3.1,0.8c0.1-0.2,0.1-0.5,0.2-0.7
		c-0.1-0.2-0.2-0.4-0.1-0.5s0.2-0.2,0.2-0.2l0,0c0.4-0.5,1.1-0.1,1.6-0.4C113.1,68.2,113.4,68.2,113.6,68.3z"/>
	<path class="st49" d="M83.9,89.4c-0.2-0.3-0.4-0.6-0.6-0.9c0.6-0.6,1.3-1.2,1.9-1.8c0.2,0.3,0.4,0.6,0.6,0.8
		C85.1,88.1,84.5,88.8,83.9,89.4z"/>
	<path class="st3" d="M62,120c-0.2,0.9,0.1,1.5,1.1,1.6c-0.6,0.6-1.3,0.8-1.8,0.1C60.8,120.9,61.2,120.3,62,120z"/>
	<path class="st50" d="M100.2,78.3c-0.2,0.1-0.5,0.4-0.8,0.4c-0.4,0.1-0.6-0.2-0.6-0.6c0-0.4,0.4-0.6,0.7-0.5
		C99.9,77.6,100.2,77.7,100.2,78.3z"/>
	<path class="st51" d="M70.2,119.4c0.2,0.6,0.8,0.8,1.3,1c-0.4,0.1-0.9,0.4-1.3,0.4s-1.2-0.2-1.2-0.4
		C69,119.6,69.6,119.5,70.2,119.4z"/>
	<path class="st52" d="M69.2,112.4c0.6,1.3-0.5,1.4-1.1,1.5s-0.4-0.6-0.4-1C68.2,112.8,68.7,112.6,69.2,112.4z"/>
	<path class="st53" d="M137.6,82.4c0.5-0.7,1-1.3,2-1.4C139.7,82.6,138.5,82.3,137.6,82.4L137.6,82.4z"/>
	<path class="st53" d="M152.1,79.9c-0.3-0.1-0.6-0.2-0.9-0.2c0-0.1,0.1-0.2,0.1-0.3c0.3-0.5,0.7-1.5,1.4-1S152.7,79.6,152.1,79.9z"
		/>
	<path class="st9" d="M98.6,93.6c0.2-0.3,0.5-0.6,0.7-0.8c0.4-0.3,1-0.5,1.2,0.1s-0.3,0.8-0.8,0.8C99.3,93.7,98.9,93.6,98.6,93.6
		L98.6,93.6z"/>
	<path class="st54" d="M112.9,68.2c-0.4,0.5-1,0.5-1.6,0.4c0-0.4-0.4-1,0.2-1.2S112.4,67.9,112.9,68.2z"/>
	<path class="st55" d="M69.3,108.1c-1-0.9,0-1.5,0.4-2.2c0.3-0.3,0.5-0.2,0.7,0.1l0.2,0.2C70.1,106.8,69.7,107.5,69.3,108.1z"/>
	<path class="st56" d="M85.3,116.3c-0.2,0.1-0.4,0.3-0.5,0.3c-0.4-0.1-0.5-0.4-0.3-0.7c0.1-0.1,0.4-0.2,0.6-0.1
		C85.2,115.8,85.2,116.1,85.3,116.3z"/>
	<path class="st3" d="M70.2,103.1c0.2,0.5,0.3,1,0.5,1.6c-0.2,0.2-0.5,0.3-0.7,0.2c-0.3-0.1-0.5-0.2-0.7-0.5l0,0
		C69.4,103.8,69.6,103.3,70.2,103.1z"/>
	<path class="st33" d="M89.5,98.5c0.2,0.3,0.4,0.6,0.6,0.9c-0.4,0.5-1,0.5-1.6,0.4l0,0C88.7,99.2,88.9,98.7,89.5,98.5z"/>
	<path class="st9" d="M103.6,86.4c0.5,0.1,0.9,0.2,1.4,0.2c-0.4,0.5-1,0.5-1.6,0.4l0,0C103.5,86.9,103.6,86.6,103.6,86.4z"/>
	<path class="st7" d="M109.1,84.5c-0.4,0.5-1,0.5-1.6,0.4l0,0C108,84.4,108.5,84.4,109.1,84.5L109.1,84.5z"/>
	<path class="st36" d="M134,89.9c0-0.3,0.1-0.6,0.1-0.9c0.3-0.2,0.5-0.4,0.8-0.5l0.1,0.2C134.9,89.1,134.6,89.6,134,89.9z"/>
	<path class="st53" d="M74.7,118.7c0.2,0,0.5,0.1,0.7,0.1c0,0.2,0.1,0.4,0.1,0.5C75,119.5,74.8,119.2,74.7,118.7z"/>
	<path class="st57" d="M110.5,112.8c-0.1,0.5-0.2,0.9-0.3,1.4c-0.7-0.4-0.6-0.9-0.4-1.5C110.1,112.7,110.3,112.8,110.5,112.8z"/>
	<path class="st8" d="M81.9,100.1c-0.1,0.3-0.3,0.6-0.4,0.9C80.9,100.3,81.5,100.3,81.9,100.1L81.9,100.1z"/>
	<path class="st58" d="M106.2,102.7c0.1,0,0.2-0.1,0.3,0c0.3,0.1,0.3,0.3,0,0.4c-0.1,0-0.2,0-0.3-0.1
		C106.2,102.9,106.2,102.7,106.2,102.7z"/>
	<path class="st59" d="M132.3,102.7c0.2,0.1,0.4,0.1,0.7,0.2c0,0.2,0,0.5-0.1,0.7c-0.5-0.1-0.9-0.2-1.4-0.2
		C131.8,103.2,132,103,132.3,102.7z"/>
	<path class="st60" d="M137.6,82.3c0,0.4-0.1,0.7-0.5,0.9l-0.2-0.2C136.9,82.5,137.2,82.4,137.6,82.3
		C137.6,82.4,137.6,82.3,137.6,82.3z"/>
	<path class="st31" d="M94.1,81.7c0.3-0.2,0.6-0.4,0.8-0.6l0,0C94.7,81.3,94.4,81.5,94.1,81.7L94.1,81.7z"/>
	<path class="st10" d="M120.2,80.6c-0.1-0.1-0.3-0.2-0.3-0.2C120,80.2,120.1,80.2,120.2,80.6L120.2,80.6z"/>
	<path class="st24" d="M104.9,107.4c-0.3,0.2-0.6,0.3-0.9,0.5C104.2,107.7,104.6,107.5,104.9,107.4z"/>
	<path class="st61" d="M81.7,108.9c0.3-0.2,0.5-0.4,0.8-0.6C82.4,108.7,82.1,108.9,81.7,108.9z"/>
	<path class="st9" d="M98.6,93.6c-0.3,0.2-0.6,0.4-0.8,0.6l0,0C98,94,98.3,93.8,98.6,93.6L98.6,93.6z"/>
	<path class="st62" d="M129.5,69.8c0.2-0.3,0.5-0.5,0.9-0.5C130.2,69.6,129.9,69.8,129.5,69.8z"/>
	<polygon class="st63" points="115.9,73.7 115.9,73.5 116.1,73.5 	"/>
	<path class="st54" d="M111.3,68.6c0,0.2-0.1,0.5-0.1,0.7c-0.2-0.1-0.5-0.2-0.7-0.2C110.8,68.9,111,68.8,111.3,68.6z"/>
	<path class="st4" d="M142.3,68.4c0.2-0.3,0.5-0.5,0.9-0.5C142.9,68.1,142.6,68.3,142.3,68.4z"/>
	<path class="st64" d="M78.1,108.3c-0.1,0.3-0.1,0.7-0.3,1c-0.2,0.3-0.6,0.9-1.1,0.3c-0.1-0.1,0.2-0.6,0.4-0.8
		C77.4,108.5,77.8,108.4,78.1,108.3L78.1,108.3z"/>
	<path class="st65" d="M75,110.6c-0.2,0.1-0.4,0.1-0.6,0.2c0-0.2-0.1-0.5,0-0.6s0.4-0.2,0.6-0.1C75.2,110.1,75.2,110.4,75,110.6z"/>
	<path class="st66" d="M70,104.6c0.2,0,0.4,0,0.6,0c-0.1,0.5-0.2,0.9-0.3,1.4H70l-0.3-0.1c0-0.2,0-0.5,0.1-0.7
		C69.6,104.9,69.7,104.7,70,104.6z"/>
	<path class="st37" d="M70,104.6c-0.1,0.2-0.2,0.4-0.3,0.6c-0.2-0.3-0.3-0.6-0.5-0.8C69.5,104.5,69.8,104.6,70,104.6z"/>
	<g>
		<path class="st67" d="M57.5,74.2c2.6,4.3,2.9,9.2,3,14c0.3,9.7-2.6,18.8-6,27.8c-0.7,1.8-1.2,3.6-1.7,5.4c-0.5,2.2-1.9,2.6-3.5,1
			c-0.9-0.9-1.5-2-2.2-3.1c-2.6-4.1-6-7.5-7.8-12.2c-0.8-2.2-1.5-4.4-1.6-6.6c-0.1-4.7,0.1-9.4,0.8-14c0.1-0.7,0.1-1.5,0.7-2.1
			c0.6-0.8,0.4-2.6,2.3-1.9c1.9,1.4,0.5,3.3,0.7,5c0.2,1.4,0.2,2.8,0.3,4.2c0.4,4.3,1.6,8.4,2,11.8c-0.2-3.4-1.7-7.6-2-11.9
			c-0.4-2.6-0.4-5.2,0.1-7.8c3.5-3.1,3.9,0.7,5.4,2.3c0.3,0.2,0.6,0.5,0.8,0.7c1.6,0.9,1,2.6,1.3,4c0.2-1.9-0.7-4.1,1.2-5.7
			c0.4,0,0.8,0.1,1.1,0.3c2,2,0.8,4.5,1.3,6.7c0.3,2.5-0.5,5-0.8,7.4c0.4,1,0.3,2.2,0.6,3.2c-1,1.1-0.8,2.6-1.3,3.9
			c0.5-1,0.4-2.1,0.7-3c1.3-1.6,0-3.2,0.1-4.8c0.5-1.5,1.1-2.9,1.5-4.4c0.3-0.9,0.6-1.9,0.2-2.6c-1.9-3.2-0.9-6.6-0.6-9.9
			c0.1-0.7,0.4-1.5-0.1-2.2c-0.6,0.6-0.1,1.4-0.5,2.1c-0.4,0.7-0.7,1.4-1.6,1.3s-1.2-0.8-1.5-1.5c-0.5-1.5-0.6-3,0-4.4
			c0.2-0.3,0.4-0.6,0.6-0.9c0.3-0.4,0.9-1,0.6-1.2c-3.6-2.5-2.2-6.6-3.1-9.9c0.1-0.4,0.3-0.6,0.6-0.9c1.4-0.6,1.9,0.2,2.7,1.2
			C54.2,68,55.4,71.3,57.5,74.2z"/>
		<path class="st68" d="M52.7,91.9c0.3-2.4,0.7-4.8-0.9-6.9l0,0c-1,1.9-1.5,3.7-0.4,5.7c0.5,1,0,1.9-1.1,1.9
			c-0.9,0.1-1.1-0.7-1.1-1.6c0.1-1.4,0.6-3.1-1.1-4l0,0c-1.1-0.3-1.6-1.1-1.9-2.2c-0.4-1.8-1.7-2-3.2-1.8c-0.3-0.1-0.5-0.2-0.6-0.5
			c-0.1-0.2-0.1-0.5-0.1-0.8c0-0.2,0.2-0.4,0.4-0.6c0.2-0.2,0.2-0.4,0.1-0.6c0-0.4,0.1-0.8,0-1.2c0-0.5-0.1-1,0.4-1.4
			c-0.5,0.3-0.4,0.8-0.4,1.3s-0.1,0.9-0.3,1.4c-0.3,0.5-0.6,1.1-0.9,1.6c-0.1,0.1-0.3,0.1-0.4,0.2c-1.1,0.1-1.2,1.4-2.1,1.8
			c-0.3-2.2,0.2-4.3,0.9-6.3c1.7-5.1,3.4-10.3,5.2-15.4c1.2-3.4,2.6-3.8,4.9-0.8c3,3.8,5.9,7.6,7.2,12.4c-0.8-0.1-1.6-0.5-1.8-1.2
			c-0.6-3.3-3.5-5.2-4.8-8c-0.5-1-1.3-0.4-2-0.5l0,0c0.4,2.6,1.8,5,1.4,7.7c-0.1,1.1,0.5,1.3,1.4,1.3s2,0,2.1,1.2
			c0.1,1.2-1.3,0.9-1.9,1.6c-0.2,0.2-0.4,0.2-0.7,0.4c-0.2-0.2,0.1,0,0,0c-0.5,2-0.5,3.9,0.5,5.9c1.5-0.8,1.3-1.8,0.9-2.9
			c-0.3-0.9,0.2-1.5,0.9-1.8c1.2-0.4,1,0.7,1.4,1.3c0.7,0.8,0.3,1.7,0.2,2.5c-0.2,1.4-0.5,2.8-0.4,4.1c0.1,1.5-2,3.6,1.2,4.3
			c-0.5,1.5,0.5,3.3-0.6,4.7C52.8,95.4,54.2,92.2,52.7,91.9z"/>
		<path class="st69" d="M43.3,91.5c1.1,4.8,1.6,9.8,2.2,14.7c-1.5-1.6-2.7-6.5-3.7-14.5C42.3,91.2,42.8,91.2,43.3,91.5z"/>
		<path class="st70" d="M52.7,91.9c0.6-0.3,1.5-1,1.5,0.4c0,1.1-0.1,2,1.2,2.3c-0.4,1.4-0.6,3-1.8,4.1c-0.3,0.6-0.5,1.2-1.4,1
			C52.2,97.1,53.2,94.5,52.7,91.9z"/>
		<path class="st46" d="M43.3,91.5c-0.5,0.1-1,0.1-1.5,0.2c-0.7-2.4,0.1-4.7,0-7.1c0-0.8-0.1-1.5-0.6-2.1h0.3
			c0.4-0.5,0.9-0.5,1.4-0.1c0.1,0.2,0.1,0.5,0.2,0.7C42.7,85.9,42.8,88.7,43.3,91.5z"/>
		<path class="st71" d="M53.5,103.5c-0.4,1.6-0.4,3.2-1.2,4.7c-0.8-2.7-0.6-3.9,1-5.7c0.2,0.2,0.4,0.3,0.3,0.6
			C53.6,103.4,53.6,103.5,53.5,103.5z"/>
		<path class="st16" d="M53.5,103.5c-0.1-0.3-0.2-0.6-0.2-0.9c-0.6-0.9-1.2-1.7-1.1-2.9c0.5-0.3,0.9-0.7,1.4-1
			C54.9,100.3,54.1,101.9,53.5,103.5z"/>
		<path class="st72" d="M48.4,94.2c0.2,0.1,0.4,0.3,0.4,0.4c0,0.4-0.2,0.6-0.6,0.5c-0.1,0-0.3-0.4-0.3-0.6
			C47.9,94.5,48.2,94.4,48.4,94.2z"/>
		<path class="st8" d="M48.3,101.3c0.2,0.1,0.5,0.1,0.7,0.2c-0.1,0.2-0.1,0.6-0.2,0.6c-0.1,0.1-0.4-0.1-0.7-0.2
			C48.2,101.7,48.2,101.5,48.3,101.3z"/>
		<path class="st69" d="M45.1,108c-0.1,0.1-0.2,0.2-0.3,0.2c-0.1,0-0.2-0.1-0.3-0.2C44.7,107.7,44.9,107.7,45.1,108z"/>
		<path class="st73" d="M42.5,80c0-1.6,0-3.1,1.3-4.9c0.6,2.1-0.8,3.4-0.5,4.9C43.1,80.3,42.8,80.2,42.5,80z"/>
		<path class="st74" d="M47.5,74.7c0.6,1.4,0.6,2.3,0.1,3.9C46.8,77.1,46.4,76.2,47.5,74.7z"/>
		<path class="st75" d="M48.2,87c0-0.2-0.1-0.5-0.1-0.7c-0.1-0.5,0-1,0.4-1.3c0.4-0.2,0.7,0,0.9,0.3c0.3,0.5,0.2,1-0.2,1.3
			C48.9,86.9,48.5,86.9,48.2,87L48.2,87z"/>
		<path class="st71" d="M51.8,85c0-0.7-0.1-1.6,1.1-1.4c0.2,0.1,0.6,0.6,0.6,0.8C53.1,85.1,52.4,84.9,51.8,85L51.8,85z"/>
		<path class="st5" d="M42.9,82.4c-0.5,0-0.9,0.1-1.4,0.1c-0.3-0.6-0.1-1.2,0.3-1.7c0.8-0.3,1.1,0,1.1,0.8
			C42.9,81.9,42.9,82.1,42.9,82.4z"/>
		<path class="st76" d="M51.3,76.5c-0.3,0-0.5,0.1-0.8,0c-0.6-0.1-0.9-0.5-0.9-1c0-0.1,0.1-0.3,0.1-0.3c0.6-0.2,0.8,0.3,1.1,0.7
			C51.1,76.1,51.2,76.3,51.3,76.5L51.3,76.5z"/>
		<path class="st77" d="M42.9,81.7c-0.4-0.3-0.7-0.6-1.1-0.8c0.2-0.3,0.5-0.6,0.7-0.9c0.3,0,0.5,0,0.8,0c0.1,0.5,0.1,1,0.2,1.5
			C43.3,81.5,43.1,81.6,42.9,81.7z"/>
		<path class="st77" d="M44.6,81.6c-0.1,0.2-0.2,0.4-0.2,0.4c-0.2,0-0.5-0.1-0.6-0.2c-0.3-0.3-0.2-0.4,0.2-0.4
			C44.1,81.5,44.3,81.5,44.6,81.6z"/>
		<path class="st20" d="M49,64.4c-0.4-0.1-0.8-0.6-0.6-0.7C49.2,63.3,48.7,64.2,49,64.4L49,64.4z"/>
		<path class="st78" d="M53.5,96.2c0.1,0,0.2,0,0.2,0c0.1,0.1,0.1,0.2,0.1,0.3c-0.1,0.3-0.3,0.3-0.4,0
			C53.4,96.4,53.5,96.3,53.5,96.2z"/>
	</g>
</g>
</svg>
