<?xml version="1.0" encoding="utf-8"?>
<!-- Generator: Adobe Illustrator 25.2.0, SVG Export Plug-In . SVG Version: 6.00 Build 0)  -->
<svg version="1.1" id="Layer_1" xmlns="http://www.w3.org/2000/svg" xmlns:xlink="http://www.w3.org/1999/xlink" x="0px" y="0px"
	 viewBox="0 0 20 20" style="enable-background:new 0 0 20 20;" xml:space="preserve">
<style type="text/css">
	.st0{fill:#FFFFFF;}
</style>
<path class="st0" d="M16,16c1.1,0,2,0.9,2,2s-0.9,2-2,2c-1.1,0-2-0.9-2-2C14,16.9,14.9,16,16,16 M0,0h3.3l0.9,2H19c0.6,0,1,0.4,1,1
	c0,0.2,0,0.3-0.1,0.5L16.3,10c-0.3,0.6-1,1-1.7,1H7.1l-0.9,1.6l0,0.1c0,0.1,0.1,0.2,0.2,0.2H18v2H6c-1.1,0-2-0.9-2-2
	c0-0.4,0.1-0.7,0.2-1l1.4-2.4L2,2H0V0 M6,16c1.1,0,2,0.9,2,2s-0.9,2-2,2c-1.1,0-2-0.9-2-2C4,16.9,4.9,16,6,16 M15,9l2.8-5H5.1l2.4,5
	H15z"/>
</svg>
