<?xml version="1.0" encoding="utf-8"?>
<!-- Generator: Adobe Illustrator 25.2.0, SVG Export Plug-In . SVG Version: 6.00 Build 0)  -->
<svg version="1.1" id="Layer_1" xmlns="http://www.w3.org/2000/svg" xmlns:xlink="http://www.w3.org/1999/xlink" x="0px" y="0px"
	 viewBox="0 0 24 24" style="enable-background:new 0 0 24 24;" xml:space="preserve">
<style type="text/css">
	.st0{fill:#05C46B;}
</style>
<path class="st0" d="M14.1,8.5L12,6.4L9.9,8.5L8.5,7.1L10.6,5L8.5,2.9l1.4-1.4L12,3.6l2.1-2.1l1.4,1.4L13.4,5l2.1,2.1L14.1,8.5
	 M7,18c1.1,0,2,0.9,2,2s-0.9,2-2,2s-2-0.9-2-2S5.9,18,7,18 M17,18c1.1,0,2,0.9,2,2s-0.9,2-2,2s-2-0.9-2-2S15.9,18,17,18 M7.2,14.8
	c0,0.1,0.1,0.2,0.2,0.2H19v2H7c-1.1,0-2-0.9-2-2c0-0.4,0.1-0.7,0.2-1l1.3-2.4L3,4H1V2h3.3l0.9,2l0.9,2l2.2,4.7L8.5,11h7l2.8-5l1.1-2
	h0l1.7,1l-3.9,7c-0.3,0.6-1,1-1.7,1H8.1l-0.9,1.6L7.2,14.8z"/>
</svg>
