<?xml version="1.0" encoding="utf-8"?>
<!-- Generator: Adobe Illustrator 25.2.0, SVG Export Plug-In . SVG Version: 6.00 Build 0)  -->
<svg version="1.1" id="Layer_1" xmlns="http://www.w3.org/2000/svg" xmlns:xlink="http://www.w3.org/1999/xlink" x="0px" y="0px"
	 viewBox="0 0 22 16" style="enable-background:new 0 0 22 16;" xml:space="preserve">
<style type="text/css">
	.st0{fill:#FFFFFF;}
</style>
<path class="st0" d="M4,0h18v12H4V0 M13,3c1.7,0,3,1.3,3,3s-1.3,3-3,3s-3-1.3-3-3S11.3,3,13,3 M8,2c0,1.1-0.9,2-2,2v4
	c1.1,0,2,0.9,2,2h10c0-1.1,0.9-2,2-2V4c-1.1,0-2-0.9-2-2H8 M0,4h2v10h16v2H0V4z"/>
</svg>
