<?xml version="1.0" encoding="utf-8"?>
<!-- Generator: Adobe Illustrator 25.2.0, SVG Export Plug-In . SVG Version: 6.00 Build 0)  -->
<svg version="1.1" id="Layer_1" xmlns="http://www.w3.org/2000/svg" xmlns:xlink="http://www.w3.org/1999/xlink" x="0px" y="0px"
	 viewBox="0 0 20 20" style="enable-background:new 0 0 20 20;" xml:space="preserve">
<style type="text/css">
	.st0{fill:#FFFFFF;}
</style>
<path class="st0" d="M2,0C0.9,0,0,0.9,0,2v10h2V2h10V0H2 M6,4C4.9,4,4,4.9,4,6v10h2V6h10V4H6 M18,10v8h-8v-8H18 M18,8h-8
	c-1.1,0-2,0.9-2,2v8c0,1.1,0.9,2,2,2h8c1.1,0,2-0.9,2-2v-8C20,8.9,19.1,8,18,8 M17,15h-2v2h-2v-2h-2v-2h2v-2h2v2h2V15z"/>
</svg>
