<?xml version="1.0" encoding="utf-8"?>
<!-- Generator: Adobe Illustrator 25.2.0, SVG Export Plug-In . SVG Version: 6.00 Build 0)  -->
<svg version="1.1" id="Layer_1" xmlns="http://www.w3.org/2000/svg" xmlns:xlink="http://www.w3.org/1999/xlink" x="0px" y="0px"
	 viewBox="0 0 30 30" style="enable-background:new 0 0 30 30;" xml:space="preserve">
<style type="text/css">
	.st0{fill:#FFFFFF;}
	.st1{fill:#17482C;}
</style>
<circle class="st0" cx="15" cy="15" r="15"/>
<path class="st1" d="M15,7.5c-4.1,0-7.5,3.4-7.5,7.6c0,3.8,2.8,6.9,6.3,7.4v-5.2h-1.9v-2.2h1.9v-1.7c0-1.9,1.1-2.9,2.8-2.9
	c0.8,0,1.6,0.1,1.6,0.1v1.9h-1c-0.9,0-1.2,0.6-1.2,1.2v1.4h2.1l-0.3,2.1h-1.7v5.2c3.7-0.6,6.4-3.8,6.3-7.4
	C22.5,10.9,19.1,7.5,15,7.5z"/>
</svg>
