<?xml version="1.0" encoding="utf-8"?>
<!-- Generator: Adobe Illustrator 25.2.0, SVG Export Plug-In . SVG Version: 6.00 Build 0)  -->
<svg version="1.1" id="Layer_1" xmlns="http://www.w3.org/2000/svg" xmlns:xlink="http://www.w3.org/1999/xlink" x="0px" y="0px"
	 viewBox="0 0 30 30" style="enable-background:new 0 0 30 30;" xml:space="preserve">
<style type="text/css">
	.st0{fill:#FFFFFF;}
	.st1{fill:#17482C;}
</style>
<circle class="st0" cx="15" cy="15" r="15"/>
<path class="st1" d="M11.9,7.5h6.3c2.4,0,4.3,1.9,4.3,4.4v6.3c0,2.4-2,4.3-4.3,4.3h-6.3c-2.4,0-4.4-2-4.4-4.3v-6.3
	C7.5,9.4,9.4,7.5,11.9,7.5 M11.7,9C10.2,9,9,10.2,9,11.7l0,0v6.6c0,1.5,1.2,2.7,2.7,2.7h6.6c1.5,0,2.7-1.2,2.7-2.7l0,0v-6.6
	c0-1.5-1.2-2.7-2.7-2.7L11.7,9 M18.9,10.1c0.5,0,0.9,0.5,0.9,0.9c0,0.4-0.4,1-0.9,1c-0.5,0-0.9-0.5-0.9-0.9
	C18,10.7,18.5,10.1,18.9,10.1 M15,11.2c2.1,0,3.8,1.6,3.8,3.8s-1.7,3.8-3.8,3.8s-3.8-1.7-3.8-3.8S12.9,11.2,15,11.2 M15,12.8
	c-1.3,0-2.2,1-2.2,2.2c0,1.3,1,2.2,2.2,2.2c1.3,0,2.2-1,2.2-2.2S16.3,12.8,15,12.8z"/>
</svg>
