<?xml version="1.0" encoding="utf-8"?>
<!-- Generator: Adobe Illustrator 25.2.0, SVG Export Plug-In . SVG Version: 6.00 Build 0)  -->
<svg version="1.1" id="Layer_1" xmlns="http://www.w3.org/2000/svg" xmlns:xlink="http://www.w3.org/1999/xlink" x="0px" y="0px"
	 viewBox="0 0 30 30" style="enable-background:new 0 0 30 30;" xml:space="preserve">
<style type="text/css">
	.st0{fill:#FFFFFF;}
	.st1{fill:#17482C;}
</style>
<circle class="st0" cx="15" cy="15" r="15"/>
<path class="st1" d="M20.8,7.5c0.9,0,1.7,0.8,1.7,1.6v11.7c0,0.9-0.8,1.7-1.7,1.7H9.1c-0.9,0-1.6-0.8-1.6-1.7V9.1
	c0-0.9,0.8-1.6,1.6-1.6H20.8 M20.4,20.4V16c0-1.5-1.2-2.7-2.7-2.7l0,0c-0.7,0-1.5,0.4-2,1.1v-0.9h-2.3v7h2.3v-4.1
	c0-0.7,0.5-1.2,1.1-1.2c0.7,0,1.2,0.5,1.2,1.2v4.1H20.4 M10.7,12.1c0.8,0,1.4-0.6,1.4-1.4l0,0c0-0.8-0.6-1.4-1.4-1.4
	c-0.8,0-1.4,0.6-1.4,1.4l0,0C9.3,11.5,10,12.1,10.7,12.1 M11.9,20.4v-7H9.6v7H11.9z"/>
</svg>
