<?xml version="1.0" encoding="utf-8"?>
<!-- Generator: Adobe Illustrator 25.2.0, SVG Export Plug-In . SVG Version: 6.00 Build 0)  -->
<svg version="1.1" id="Layer_1" xmlns="http://www.w3.org/2000/svg" xmlns:xlink="http://www.w3.org/1999/xlink" x="0px" y="0px"
	 viewBox="0 0 24.1 24.1" style="enable-background:new 0 0 24.1 24.1;" xml:space="preserve">
<style type="text/css">
	.st0{fill:#E7EEC2;}
	.st1{fill:#306B1B;}
</style>
<path class="st0" d="M12,24.1L12,24.1c-6.7,0-12-5.4-12-12v0C0,5.4,5.4,0,12,0h0c6.7,0,12,5.4,12,12v0C24.1,18.7,18.7,24.1,12,24.1z
	"/>
<path class="st1" d="M12,16c1.1,0,2,0.9,2,2s-0.9,2-2,2s-2-0.9-2-2S10.9,16,12,16 M12,10c1.1,0,2,0.9,2,2s-0.9,2-2,2s-2-0.9-2-2
	S10.9,10,12,10 M12,4c1.1,0,2,0.9,2,2s-0.9,2-2,2s-2-0.9-2-2S10.9,4,12,4z"/>
</svg>
