<?xml version="1.0" encoding="utf-8"?>
<!-- Generator: Adobe Illustrator 25.2.0, SVG Export Plug-In . SVG Version: 6.00 Build 0)  -->
<svg version="1.1" id="Layer_1" xmlns="http://www.w3.org/2000/svg" xmlns:xlink="http://www.w3.org/1999/xlink" x="0px" y="0px"
	 viewBox="0 0 30 30" style="enable-background:new 0 0 30 30;" xml:space="preserve">
<style type="text/css">
	.st0{fill:#FFFFFF;}
	.st1{fill:#17482C;}
</style>
<circle class="st0" cx="15" cy="15" r="15"/>
<path class="st1" d="M22.5,10.4c-0.5,0.3-1.1,0.4-1.8,0.5c0.6-0.4,1.1-1,1.3-1.7c-0.6,0.4-1.3,0.6-2,0.8c-0.6-0.6-1.3-1-2.2-1
	c-1.6,0-3.1,1.3-3.1,3.1c0,0.2,0,0.5,0.1,0.7c-2.6-0.1-4.8-1.3-6.4-3.2c-0.2,0.4-0.4,1-0.4,1.5c0,1.1,0.5,2,1.4,2.6
	c-0.5,0-1-0.1-1.4-0.4l0,0c0,1.5,1.1,2.7,2.5,3c-0.2,0.1-0.5,0.1-0.8,0.1c-0.2,0-0.4,0-0.6-0.1c0.4,1.2,1.5,2.1,2.8,2.1
	c-0.9,0.9-2.2,1.3-3.7,1.3c-0.2,0-0.5,0-0.8-0.1c1.4,0.9,3,1.3,4.7,1.3c5.6,0.1,8.8-4.5,8.8-8.6c0-0.1,0-0.3,0-0.4
	C21.6,11.5,22,11,22.5,10.4z"/>
</svg>
